<svg width="18" height="18" viewBox="0 0 18 15" fill="none" xmlns="http://www.w3.org/2000/svg"><path d="M5.648 14.571c6.796 0 10.513-5.607 10.513-10.467 0-.16 0-.32-.008-.473A7.552 7.552 0 0 0 18 1.724a7.525 7.525 0 0 1-2.123.58A3.68 3.68 0 0 0 17.502.267a7.502 7.502 0 0 1-2.345.893A3.685 3.685 0 0 0 12.46 0a3.687 3.687 0 0 0-3.694 3.677c0 .29.03.572.1.84A10.498 10.498 0 0 1 1.249.67a3.678 3.678 0 0 0-.498 1.847c0 1.274.651 2.403 1.647 3.059a3.642 3.642 0 0 1-1.67-.458v.046a3.687 3.687 0 0 0 2.965 3.608 3.699 3.699 0 0 1-1.67.061 3.687 3.687 0 0 0 3.448 2.556A7.448 7.448 0 0 1 0 12.908a10.328 10.328 0 0 0 5.648 1.663Z" fill="#9F9F9F"/></svg>